<?xml version="1.0" standalone="no"?>
<!DOCTYPE svg PUBLIC "-//W3C//DTD SVG 20010904//EN"
 "http://www.w3.org/TR/2001/REC-SVG-20010904/DTD/svg10.dtd">
<svg version="1.0" xmlns="http://www.w3.org/2000/svg"
 width="1024.000000pt" height="881.000000pt" viewBox="0 0 1024.000000 881.000000"
 preserveAspectRatio="xMidYMid meet">
<metadata>
Created by potrace 1.16, written by Peter Selinger 2001-2019
</metadata>
<g transform="translate(0.000000,881.000000) scale(0.100000,-0.100000)"
fill="#000000" stroke="none">
<path d="M3799 7431 c-56 -46 -173 -86 -290 -100 -46 -6 -178 -15 -293 -21
-439 -21 -713 -78 -954 -201 -339 -171 -665 -525 -877 -951 -111 -223 -163
-377 -216 -637 -29 -140 -37 -520 -15 -688 72 -543 346 -992 781 -1280 88 -59
315 -168 408 -198 71 -22 99 -45 55 -45 -66 -1 -164 -81 -188 -155 -20 -60 -9
-146 26 -202 73 -119 228 -159 413 -107 29 8 56 13 58 10 3 -3 -10 -36 -30
-73 -19 -37 -38 -88 -42 -113 -15 -100 67 -221 168 -250 44 -12 156 -9 210 5
l27 7 0 -80 c0 -86 23 -167 60 -214 49 -63 203 -113 271 -89 42 14 45 9 52
-87 15 -182 83 -321 223 -452 33 -31 122 -100 199 -155 77 -54 175 -124 218
-154 121 -86 237 -185 290 -248 57 -70 154 -254 163 -311 4 -23 10 -42 13 -42
9 0 39 125 51 212 12 78 -2 212 -29 291 -30 86 -86 170 -161 241 -108 101
-225 171 -402 241 -54 21 -98 42 -98 46 0 5 21 9 48 9 81 1 165 54 191 123 14
36 14 108 0 144 -11 31 -57 83 -73 83 -5 0 -32 -19 -59 -42 -76 -64 -145 -81
-227 -57 -55 17 -162 100 -198 154 -29 44 -43 105 -24 105 4 0 24 -20 44 -44
53 -63 111 -88 203 -89 65 0 80 3 122 29 65 40 96 98 103 189 l5 70 105 5 c89
5 115 10 170 36 87 41 120 71 161 146 28 52 33 73 33 123 -2 161 -145 252
-274 174 -39 -24 -74 -98 -68 -145 5 -40 -9 -44 -39 -11 -108 117 -128 402
-39 572 11 22 21 41 22 43 1 2 39 -34 85 -79 46 -45 134 -118 194 -163 325
-242 389 -291 485 -373 188 -159 283 -304 305 -464 13 -93 -29 -274 -84 -361
-27 -42 -96 -106 -106 -97 -2 3 11 33 28 69 28 57 32 74 32 150 0 71 -4 94
-27 143 -40 84 -114 157 -201 198 -70 33 -76 34 -197 34 -150 0 -189 -14 -279
-100 -143 -137 -170 -347 -68 -539 66 -124 206 -232 334 -256 34 -7 107 -11
162 -8 56 2 101 2 101 0 0 -3 -26 -32 -57 -66 -32 -34 -73 -92 -92 -128 -28
-57 -34 -81 -39 -156 -8 -147 32 -233 237 -505 149 -199 274 -394 323 -503 10
-24 25 -44 32 -44 7 0 41 52 75 115 73 135 155 261 244 377 126 166 188 258
230 345 41 86 42 91 42 188 -1 90 -4 106 -32 166 -17 37 -60 100 -97 142 -69
79 -83 108 -43 85 14 -9 63 -13 142 -13 109 0 126 3 185 28 91 39 135 72 197
148 159 197 158 467 -3 619 -80 76 -147 102 -269 108 -113 5 -194 -16 -269
-68 -105 -72 -176 -198 -176 -310 0 -52 27 -151 51 -183 25 -35 18 -45 -15
-23 -38 24 -65 57 -91 106 -75 148 -91 327 -40 455 37 93 81 158 173 255 72
77 281 243 472 375 105 73 203 152 310 250 45 41 86 73 90 70 5 -3 24 -42 42
-88 31 -77 33 -90 33 -197 -1 -106 -3 -122 -33 -196 -28 -71 -80 -144 -102
-144 -4 0 -8 22 -8 49 0 61 -18 99 -61 128 -74 50 -154 42 -217 -21 -119 -119
-60 -324 118 -414 69 -35 176 -55 244 -45 l41 5 7 -64 c10 -91 44 -160 97
-195 39 -26 50 -28 133 -28 104 0 125 9 199 80 51 50 70 52 57 5 -22 -78 -130
-183 -219 -215 -89 -31 -180 -9 -253 62 -43 42 -57 40 -93 -16 -51 -76 -46
-168 13 -233 44 -49 85 -68 147 -68 25 0 45 -4 45 -9 0 -10 -94 -56 -168 -82
-74 -26 -216 -109 -281 -164 -167 -143 -252 -331 -236 -525 6 -76 26 -193 41
-243 7 -21 24 -13 24 13 0 29 62 168 105 235 83 129 236 264 532 464 328 223
432 373 459 664 l6 68 31 -8 c59 -15 149 -8 193 14 48 26 110 91 132 142 9 20
18 77 21 126 6 90 6 90 31 85 14 -3 66 -5 115 -5 80 0 95 3 136 27 63 37 94
77 109 138 19 78 9 141 -33 208 -41 65 -38 69 49 53 73 -14 198 -14 246 -1 86
24 172 123 184 210 13 94 -39 195 -120 235 -28 14 -60 25 -72 25 -13 0 -25 4
-28 9 -6 9 21 22 94 45 219 69 475 222 644 385 284 275 459 624 533 1061 22
131 22 467 0 608 -54 341 -163 643 -328 912 -102 166 -257 367 -360 467 -112
110 -146 137 -264 215 -300 199 -578 273 -1120 298 -121 6 -260 17 -308 25
-107 18 -232 65 -283 106 l-38 30 -9 -23 c-5 -13 -10 -76 -11 -141 -1 -117 -1
-118 -26 -123 -68 -15 -296 -92 -382 -130 -193 -84 -369 -207 -528 -366 -48
-48 -92 -88 -97 -88 -6 0 -16 7 -23 15 -21 25 -131 82 -180 93 -176 41 -349
13 -466 -77 l-51 -39 -109 107 c-217 211 -458 353 -747 440 -92 28 -170 51
-173 51 -3 0 -3 33 1 74 8 82 0 167 -18 189 -10 13 -19 10 -58 -22z m426 -482
c162 -62 325 -166 496 -319 128 -114 132 -120 118 -172 -7 -24 -13 -87 -13
-140 0 -54 -4 -98 -7 -98 -4 0 -24 7 -45 16 -29 12 -61 15 -124 12 -110 -5
-192 -42 -267 -118 l-52 -54 -98 3 c-266 6 -405 -39 -784 -254 -278 -158 -399
-212 -549 -246 -223 -49 -461 7 -639 151 -35 29 -67 48 -71 43 -14 -14 -51
-173 -66 -283 -18 -137 -18 -336 1 -442 30 -175 100 -339 197 -466 55 -71 200
-207 268 -251 30 -20 118 -68 195 -107 l140 -70 6 -65 c3 -35 9 -87 13 -115
l8 -51 -36 -7 c-76 -14 -134 -101 -122 -181 24 -158 208 -281 450 -301 95 -7
114 -25 49 -44 -60 -18 -297 -24 -413 -11 -218 25 -494 96 -647 167 -71 33
-81 49 -25 37 62 -13 175 -7 236 12 71 23 149 90 191 167 27 49 30 61 30 153
0 134 -24 188 -133 294 -79 78 -93 86 -417 267 -215 120 -312 186 -413 279
-259 242 -377 551 -297 785 26 76 95 180 120 180 19 0 19 -5 -1 -35 -9 -13
-18 -51 -21 -84 -14 -146 108 -261 276 -261 135 1 234 108 235 255 0 79 -16
123 -75 201 -27 36 -49 67 -49 70 0 2 12 4 28 4 51 0 126 34 174 80 60 58 83
129 68 208 -27 147 -126 222 -289 222 -69 0 -137 -24 -200 -71 -17 -12 -33
-20 -36 -17 -8 8 54 97 117 168 158 180 368 280 562 267 149 -9 247 -65 301
-173 92 -182 -35 -403 -264 -456 -30 -7 -51 -17 -51 -25 0 -20 66 -88 118
-122 63 -40 148 -61 252 -61 148 0 288 51 375 136 26 25 48 44 49 42 52 -112
122 -166 227 -175 71 -7 93 -2 151 37 65 43 117 124 129 202 6 35 12 64 14 66
2 3 22 -10 44 -27 48 -38 111 -67 179 -82 104 -22 234 26 301 112 46 58 61
102 61 179 -1 103 -53 190 -136 230 l-47 21 36 37 c63 67 92 160 78 251 -8 48
-6 61 8 61 4 0 42 -14 86 -31z m2178 4 c-5 -16 -8 -57 -7 -93 1 -75 25 -138
72 -189 38 -39 39 -47 10 -55 -40 -10 -96 -65 -124 -121 -39 -81 -37 -163 6
-251 56 -115 149 -160 314 -152 102 5 134 17 201 79 l43 39 4 -58 c7 -102 71
-194 163 -238 121 -58 280 0 330 119 l16 38 54 -50 c104 -95 235 -136 405
-128 112 5 185 29 257 86 49 40 88 93 76 105 -3 3 -16 6 -29 6 -49 0 -138 45
-196 99 -76 70 -109 135 -116 224 -4 60 -2 73 27 132 39 79 105 139 175 161
138 42 287 24 446 -53 83 -40 107 -58 200 -152 96 -96 177 -198 166 -209 -3
-2 -31 12 -63 31 -72 45 -135 61 -215 55 -122 -8 -202 -71 -239 -188 -17 -54
-18 -72 -9 -116 12 -57 52 -120 97 -152 36 -25 115 -52 153 -52 39 0 38 -9 -6
-51 -64 -62 -87 -112 -92 -204 -5 -99 7 -143 57 -198 101 -112 282 -103 390
20 55 62 69 126 47 212 -9 35 -15 65 -13 67 10 10 88 -91 113 -146 24 -55 29
-80 32 -168 3 -90 0 -115 -23 -190 -66 -213 -221 -417 -427 -562 -40 -28 -134
-85 -208 -127 -420 -237 -431 -244 -518 -337 -118 -124 -146 -280 -76 -418 78
-154 219 -215 427 -183 99 16 -77 -69 -250 -119 -244 -71 -480 -103 -678 -92
-146 9 -189 17 -193 38 -3 13 12 17 80 23 46 4 108 14 138 22 234 60 371 239
298 390 -18 38 -74 73 -116 73 -29 0 -33 3 -27 18 4 9 12 55 17 102 5 47 12
94 14 105 3 14 38 36 120 75 155 73 244 132 349 231 94 89 151 159 207 254
156 264 185 643 76 1018 l-19 68 -37 -33 c-88 -79 -222 -152 -332 -179 -84
-21 -277 -16 -378 9 -116 30 -301 117 -565 266 -327 185 -484 233 -717 223
l-105 -4 -62 57 c-34 32 -88 70 -120 85 -75 36 -180 45 -249 21 -71 -24 -70
-24 -66 47 3 38 -3 94 -13 141 l-17 78 33 35 c52 55 227 204 299 254 85 60
164 103 275 150 113 47 128 49 118 12z m-1190 -845 c8 -18 20 -52 26 -75 7
-24 15 -43 20 -43 5 0 18 28 31 63 12 34 27 68 33 75 34 43 384 -72 466 -153
11 -11 2 -21 -60 -61 -41 -27 -110 -83 -154 -126 -44 -43 -80 -78 -81 -78 -1
0 -5 18 -9 39 -28 168 -245 240 -368 123 -35 -33 -67 -93 -67 -125 0 -42 -13
-39 -74 21 -34 33 -91 81 -127 108 -136 101 -127 92 -104 106 105 68 212 112
335 138 114 25 115 25 133 -12z m-983 -190 c0 -25 -61 -142 -101 -192 -56 -71
-160 -139 -237 -156 -108 -23 -192 -9 -339 56 -15 7 -43 -85 -43 -141 0 -55
23 -128 55 -177 28 -43 107 -98 139 -98 12 0 28 -5 36 -10 12 -7 7 -16 -27
-45 -45 -38 -73 -102 -73 -167 0 -70 53 -145 129 -183 48 -24 131 -15 175 19
32 24 76 100 76 131 0 31 20 14 31 -27 40 -150 209 -367 419 -538 152 -123
235 -204 225 -219 -12 -21 -161 -9 -211 17 -72 37 -141 128 -178 236 -6 18 -7
18 -25 2 -10 -10 -34 -45 -52 -79 -26 -50 -33 -76 -37 -137 -4 -70 -2 -79 30
-140 40 -77 110 -131 198 -153 29 -8 55 -18 57 -23 1 -5 -59 -49 -133 -98
-109 -72 -139 -88 -152 -80 -41 26 -102 254 -102 380 0 119 27 235 83 365 l16
36 -117 -39 c-151 -50 -417 -104 -557 -113 -116 -7 -239 4 -333 31 -51 14 -54
16 -47 42 18 75 124 202 219 264 53 34 104 51 94 31 -49 -96 -60 -127 -54
-156 10 -48 54 -115 86 -132 184 -95 356 132 244 322 -42 72 -120 113 -236
125 l-28 3 42 64 c36 54 43 73 46 125 3 51 0 66 -20 96 -31 46 -61 60 -128 60
-69 0 -117 -30 -156 -95 l-26 -45 -28 38 c-109 151 -333 196 -490 97 -107 -68
-150 -234 -82 -324 29 -39 101 -73 141 -67 103 16 152 116 96 199 -14 20 -23
42 -20 47 19 31 107 -14 144 -73 29 -47 51 -140 51 -214 0 -71 -12 -134 -47
-251 l-24 -83 -87 46 c-150 80 -251 172 -340 308 -96 149 -147 304 -161 495
-6 69 -8 129 -5 133 2 4 37 -8 77 -27 138 -65 300 -81 457 -44 159 38 275 93
458 217 70 47 170 115 222 151 210 142 370 199 563 201 63 1 87 -2 87 -11z
m2375 -18 c146 -45 271 -117 561 -319 242 -169 531 -267 711 -241 84 11 187
43 231 70 54 33 55 32 49 -102 -11 -246 -102 -471 -256 -631 -79 -83 -284
-222 -317 -215 -22 4 -72 175 -81 275 -14 172 70 343 170 343 33 0 34 -9 2
-56 -42 -62 -29 -138 29 -173 67 -40 125 -34 179 17 117 110 67 292 -102 370
-48 23 -69 27 -151 26 -83 0 -102 -3 -151 -27 -51 -25 -119 -84 -152 -130 -12
-17 -15 -15 -42 27 -54 86 -168 119 -241 71 -88 -57 -84 -212 7 -311 l20 -21
-65 -5 c-45 -4 -79 -14 -110 -32 -153 -90 -168 -308 -27 -403 47 -32 135 -32
182 0 42 28 77 79 85 124 5 26 0 48 -24 96 -17 34 -29 63 -27 65 8 9 72 -20
123 -55 98 -67 221 -240 190 -268 -23 -22 -79 -35 -200 -47 -209 -20 -502 24
-752 113 -63 23 -106 34 -103 27 74 -170 97 -263 97 -395 0 -122 -62 -347
-105 -383 -10 -8 -47 12 -149 80 -130 87 -151 106 -123 114 117 32 132 40 187
95 70 70 95 133 88 225 -7 83 -68 206 -103 206 -6 0 -22 -25 -34 -55 -13 -31
-46 -81 -75 -112 -63 -70 -130 -103 -206 -103 -58 0 -100 8 -100 19 0 3 37 38
81 76 404 348 488 443 570 647 l33 82 12 -49 c25 -96 82 -140 179 -139 85 0
129 29 166 108 45 95 36 163 -31 239 -22 25 -40 47 -40 50 0 3 12 8 28 12 46
11 121 66 152 111 52 75 63 200 25 291 l-15 35 -27 -18 c-188 -123 -413 -79
-552 110 -48 65 -91 148 -91 177 0 22 2 22 113 16 72 -4 137 -13 182 -27z
m-1891 -75 c96 -46 233 -152 284 -218 50 -64 53 -80 15 -70 -94 25 -153 -4
-231 -115 -82 -116 -133 -149 -105 -70 20 58 10 100 -33 137 -67 59 -171 34
-217 -53 -33 -64 -31 -173 6 -248 26 -54 116 -148 142 -148 5 0 16 -4 24 -9
11 -7 6 -19 -27 -56 -84 -95 -77 -221 16 -292 37 -28 52 -33 96 -33 29 0 55
-3 59 -6 3 -3 -4 -27 -15 -52 -41 -97 -10 -201 76 -247 32 -17 41 -18 92 -7
31 6 72 23 90 37 28 21 34 23 34 10 0 -23 -27 -67 -54 -87 -13 -9 -54 -33 -91
-53 l-68 -37 -86 89 c-144 148 -326 443 -385 626 -65 201 -74 444 -21 587 15
41 41 98 57 126 38 68 135 183 178 212 42 28 66 25 164 -23z m1300 -6 c103
-94 196 -259 222 -396 53 -278 -30 -564 -268 -928 -86 -133 -208 -275 -235
-275 -24 0 -156 65 -189 93 -31 26 -49 63 -35 71 4 3 26 -9 50 -25 72 -48 152
-38 212 28 53 57 61 106 34 197 -8 27 -15 53 -15 57 0 5 20 6 44 3 55 -8 117
25 152 82 47 78 24 213 -46 259 -16 11 -30 23 -30 27 0 4 19 17 41 29 55 27
121 97 149 156 28 57 34 191 11 232 -75 136 -271 112 -271 -33 0 -19 5 -47 10
-61 21 -55 -24 -20 -97 75 -88 114 -133 144 -205 137 -27 -2 -48 -2 -48 0 0
37 144 180 240 238 74 45 166 84 197 85 12 0 45 -22 77 -51z m3241 -751 c-29
-443 -182 -861 -395 -1078 -88 -90 -164 -132 -249 -138 -46 -3 -62 0 -90 20
-54 37 -74 70 -73 122 2 89 28 125 246 340 135 134 231 238 285 311 99 133
206 339 264 508 14 40 19 10 12 -85z m-7930 -3 c84 -243 282 -524 521 -740
200 -181 234 -228 234 -317 0 -50 -40 -121 -81 -144 -38 -21 -118 -17 -174 10
-187 88 -336 300 -438 626 -51 165 -70 244 -92 388 -16 109 -21 282 -7 267 5
-6 21 -46 37 -90z m3780 -897 c15 -29 56 -93 93 -142 l66 -89 29 34 c39 46
100 136 133 195 15 27 28 50 29 52 2 2 22 -15 46 -37 24 -23 59 -51 76 -64 18
-12 33 -26 33 -30 0 -5 -38 -59 -84 -121 -46 -62 -105 -145 -131 -185 -26 -40
-53 -75 -60 -77 -7 -3 -30 4 -50 15 l-38 20 -17 -21 c-25 -32 -44 -18 -107 79
-31 48 -87 129 -125 179 -37 50 -68 97 -68 106 0 11 134 138 146 138 2 0 15
-24 29 -52z m2361 -109 c-12 -102 -69 -239 -101 -239 -7 0 -16 12 -19 26 -16
61 -71 157 -121 211 l-55 58 142 5 c79 3 147 3 152 1 4 -2 5 -30 2 -62z
m-2478 -174 c90 -108 129 -167 170 -260 29 -67 33 -96 9 -77 -21 16 -81 20
-113 7 -18 -7 -50 -40 -79 -79 -27 -37 -73 -83 -102 -103 -44 -30 -62 -36
-121 -41 l-69 -4 5 -52 c9 -107 80 -195 174 -215 66 -15 92 -14 160 5 32 9 61
14 65 11 3 -4 -2 -33 -11 -65 -28 -100 -18 -160 38 -220 68 -75 224 -80 296
-9 60 59 76 142 45 242 -8 27 -12 51 -10 53 2 2 34 -4 72 -13 180 -45 323 52
323 218 l0 53 -67 0 c-85 0 -119 17 -173 87 -87 112 -101 127 -138 138 -29 8
-46 8 -79 -4 -24 -8 -43 -10 -43 -5 0 56 149 276 311 462 26 29 102 -120 103
-199 0 -65 -23 -109 -86 -166 l-51 -46 23 -41 c29 -51 75 -75 156 -80 47 -3
69 0 100 16 80 41 123 118 124 220 0 34 4 62 10 62 18 0 190 -224 190 -248 0
-40 -144 -214 -309 -375 -422 -411 -501 -502 -590 -683 -28 -57 -54 -104 -57
-104 -2 0 -18 29 -34 65 -80 178 -251 380 -556 656 -133 121 -264 265 -333
367 l-42 63 33 52 c18 28 59 81 91 116 31 36 57 69 57 73 0 4 4 8 9 8 4 0 11
-27 14 -60 15 -143 102 -230 233 -231 72 -1 128 32 160 93 22 42 18 50 -42 96
-55 43 -84 89 -84 135 0 41 29 122 61 170 l32 48 25 -23 c13 -13 59 -63 100
-113z m-1148 -172 c7 -32 23 -86 35 -120 l24 -61 -42 -17 c-134 -55 -284 -95
-353 -95 -27 0 -34 4 -34 20 0 12 7 20 16 20 9 0 44 13 79 30 76 36 183 145
223 226 14 30 29 54 33 54 4 0 13 -26 19 -57z m2906 -10 c56 -96 177 -200 282
-242 74 -30 10 -45 -107 -25 -88 15 -291 89 -291 105 0 5 8 26 19 47 10 20 27
65 36 100 10 34 21 62 25 62 5 0 21 -21 36 -47z m-1433 -1985 c24 -46 72 -132
106 -193 144 -256 175 -347 169 -491 -3 -78 -9 -101 -36 -156 -41 -83 -99
-143 -169 -175 -106 -49 -249 -17 -339 74 -45 46 -93 145 -102 210 -20 137 18
256 168 518 50 88 105 190 122 228 18 37 33 67 34 67 1 0 22 -37 47 -82z"/>
</g>
</svg>
