<?xml version="1.0" standalone="no"?>
<!DOCTYPE svg PUBLIC "-//W3C//DTD SVG 20010904//EN"
 "http://www.w3.org/TR/2001/REC-SVG-20010904/DTD/svg10.dtd">
<svg version="1.0" xmlns="http://www.w3.org/2000/svg"
 width="1600.000000pt" height="1690.000000pt" viewBox="0 0 1600.000000 1690.000000"
 preserveAspectRatio="xMidYMid meet">

<g transform="translate(0.000000,1690.000000) scale(0.100000,-0.100000)"
fill="#000000" stroke="none">
<path d="M8796 16000 c-119 -21 -236 -108 -321 -239 -89 -137 -136 -261 -286
-741 -55 -178 -139 -426 -186 -550 -47 -124 -112 -301 -145 -395 -210 -601
-266 -707 -683 -1280 -428 -589 -555 -773 -669 -967 -78 -133 -112 -211 -207
-470 -180 -495 -417 -1079 -776 -1918 -107 -250 -208 -491 -225 -535 -29 -78
-29 -80 -12 -117 9 -21 20 -38 24 -38 3 0 12 17 19 38 24 64 169 417 274 662
336 789 623 1374 835 1700 89 137 120 175 277 345 247 266 775 853 822 915 11
14 25 56 32 95 16 92 65 208 106 251 30 31 38 35 76 32 32 -2 47 -9 63 -31 59
-80 9 -375 -88 -523 -60 -90 -131 -95 -159 -11 l-13 39 -194 -218 c-107 -121
-294 -327 -415 -459 -121 -131 -241 -262 -266 -290 -217 -238 -551 -871 -893
-1690 -37 -88 -81 -191 -98 -230 -17 -38 -33 -77 -35 -85 -3 -8 44 59 103 150
598 910 1005 1491 1166 1665 250 269 624 552 1066 805 71 40 101 64 125 99 48
70 166 183 218 209 57 28 99 28 133 1 68 -54 4 -200 -160 -362 -77 -77 -173
-137 -218 -137 -30 0 -66 28 -66 51 0 10 -6 19 -13 19 -16 0 -254 -149 -394
-246 -416 -288 -628 -493 -871 -844 -36 -52 -69 -97 -72 -100 -3 -3 -66 -93
-140 -200 -193 -280 -214 -309 -225 -327 -15 -24 -77 -115 -163 -241 -42 -62
-88 -130 -102 -151 -14 -21 -146 -220 -293 -441 -268 -401 -289 -436 -342
-583 -21 -58 -25 -83 -18 -99 9 -20 15 -17 109 67 207 186 511 462 569 515
846 789 1150 1119 1332 1450 32 57 63 117 70 132 12 29 12 29 -20 23 -44 -9
-77 22 -77 73 0 106 188 355 317 421 123 62 191 -22 127 -158 -25 -55 -118
-177 -159 -209 -12 -10 -30 -42 -40 -72 -63 -193 -234 -467 -449 -720 -201
-237 -850 -865 -1402 -1359 -127 -113 -230 -208 -228 -209 3 -5 318 153 457
229 543 299 1027 648 1301 940 296 314 619 747 855 1144 l71 120 -45 3 c-156
11 -50 215 193 374 123 79 205 95 252 48 56 -56 -10 -177 -156 -286 -64 -49
-79 -67 -130 -157 -301 -535 -703 -1072 -1060 -1417 -258 -250 -600 -498
-1039 -755 -180 -105 -539 -294 -687 -361 l-106 -49 5 -50 c3 -27 8 -53 12
-57 7 -8 213 43 346 86 167 53 730 427 1215 806 488 383 858 765 1414 1465 92
116 179 226 194 245 16 19 98 128 184 241 129 171 158 216 172 265 29 101 59
167 94 206 28 31 41 38 71 38 114 0 131 -184 41 -431 -49 -135 -111 -208 -164
-195 -30 7 -66 59 -66 94 0 12 -3 22 -7 21 -5 0 -66 -77 -138 -172 -418 -553
-889 -1104 -1211 -1417 -351 -341 -989 -820 -1535 -1152 -168 -101 -292 -147
-581 -212 -23 -5 -28 -12 -28 -36 0 -32 -11 -31 126 -11 162 24 946 444 1429
764 563 375 1013 743 1495 1226 l265 266 18 65 c10 36 39 106 63 157 70 142
143 194 203 146 74 -60 23 -313 -98 -492 -49 -72 -84 -101 -122 -101 -29 0
-69 30 -69 52 0 7 -102 -89 -227 -213 -126 -124 -273 -265 -328 -315 -697
-624 -1415 -1105 -2300 -1539 -197 -97 -258 -119 -360 -130 -96 -10 -102 -13
-109 -48 -16 -84 -108 -235 -207 -341 -33 -36 -56 -67 -51 -69 10 -7 132 -53
187 -72 101 -34 243 -66 380 -85 317 -43 397 -65 530 -142 62 -36 118 -80 181
-143 101 -100 128 -141 183 -277 l38 -93 274 -123 274 -123 100 6 c55 3 172
10 260 15 306 20 806 29 1075 20 477 -17 734 -53 1020 -145 547 -177 1002
-473 1610 -1050 165 -157 361 -328 670 -584 394 -327 462 -384 525 -443 63
-58 178 -192 481 -557 198 -238 333 -385 375 -407 39 -20 103 -18 147 5 81 41
214 212 298 381 165 335 150 698 -48 1121 -223 477 -548 989 -926 1459 -84
105 -471 495 -632 637 -200 178 -745 563 -1167 826 -462 288 -666 382 -1043
481 -501 131 -1042 195 -1410 167 -202 -16 -292 -33 -545 -101 -464 -125 -635
-168 -1155 -294 -395 -95 -940 -219 -944 -215 -11 14 -45 134 -39 140 5 4 98
43 208 87 630 252 850 356 1305 620 896 519 1476 947 1735 1281 28 35 69 88
92 117 99 124 249 367 279 449 9 28 21 55 25 60 4 6 19 56 33 112 46 179 126
415 181 528 63 132 104 186 277 368 166 175 200 216 248 298 89 150 127 334
116 559 -11 235 -45 413 -131 695 -52 171 -73 261 -84 371 -17 163 7 257 96
391 142 210 142 354 -2 658 -95 202 -305 545 -466 761 -387 520 -740 778
-1003 734z"/>
<path d="M3614 14860 c-274 -62 -663 -256 -997 -497 l-47 -35 107 -53 c285
-140 552 -361 851 -705 174 -200 278 -316 398 -445 232 -251 301 -344 384
-518 114 -237 245 -738 350 -1329 10 -57 25 -88 99 -204 l86 -137 70 -17 c96
-23 136 -42 185 -86 78 -71 85 -95 84 -289 -2 -173 -23 -384 -100 -1000 -19
-154 -36 -292 -37 -307 -1 -20 17 -55 63 -122 36 -52 68 -95 71 -96 3 0 17 28
31 63 14 34 131 321 261 637 212 517 292 710 529 1270 266 629 389 1129 358
1461 -16 164 -86 402 -231 779 -52 138 -210 438 -302 577 -229 345 -442 549
-772 736 -274 156 -623 276 -936 321 -149 22 -399 20 -505 -4z"/>
<path d="M2674 11670 c-454 -40 -901 -197 -1056 -368 -62 -69 -80 -115 -88
-227 -5 -69 -14 -117 -29 -150 -12 -28 -20 -59 -17 -70 3 -11 24 -39 48 -62
l43 -42 80 25 c459 143 793 94 1615 -236 314 -126 442 -186 498 -235 62 -54
112 -133 196 -308 40 -85 88 -177 106 -203 83 -123 210 -242 300 -282 24 -11
80 -18 175 -22 162 -6 198 -18 293 -101 30 -27 58 -49 62 -49 4 0 10 24 14 53
15 131 57 476 61 512 32 258 65 611 65 699 0 110 -64 163 -208 173 l-77 6 -60
114 c-47 90 -99 164 -235 337 -174 220 -175 221 -250 259 -139 70 -250 61
-434 -33 -61 -32 -138 -72 -170 -89 -94 -50 -112 -45 -190 49 -111 133 -208
197 -358 234 -80 20 -259 28 -384 16z"/>
<path d="M11030 11004 c-647 -44 -1076 -161 -1267 -348 -54 -54 -64 -69 -84
-136 -141 -476 -466 -852 -1169 -1352 -437 -310 -1241 -808 -1590 -983 -49
-25 -90 -47 -90 -50 0 -2 6 -2 13 0 6 2 149 38 317 79 327 80 548 137 835 216
225 62 303 76 491 90 249 19 536 2 984 -60 118 -17 321 -41 450 -55 129 -14
264 -30 300 -37 95 -16 311 -13 412 5 139 25 282 71 463 147 94 40 212 90 263
111 141 59 273 80 757 124 299 27 519 116 661 267 95 100 128 196 128 368 0
63 -5 140 -12 170 -43 192 -141 401 -303 644 -275 415 -505 637 -757 732 -156
58 -211 66 -492 69 -140 1 -280 1 -310 -1z"/>
<path d="M1915 10684 c-83 -15 -215 -51 -215 -59 0 -3 35 -33 78 -66 105 -84
191 -123 342 -155 186 -39 256 -77 423 -230 116 -108 295 -221 677 -429 451
-246 627 -361 766 -500 155 -154 203 -275 228 -576 22 -262 52 -371 151 -556
97 -180 231 -345 339 -417 95 -63 227 -87 346 -62 93 20 144 54 187 124 54 92
68 171 67 387 -4 505 -153 838 -479 1070 -44 32 -110 72 -147 91 -64 32 -73
34 -173 34 -173 0 -277 52 -434 215 -101 105 -149 179 -248 381 -43 88 -91
176 -107 197 -43 56 -112 102 -222 148 -54 22 -142 59 -194 81 -694 291 -1068
378 -1385 322z"/>
<path d="M4846 7471 c-19 -21 -18 -47 6 -156 12 -58 58 -154 96 -205 159 -211
512 -387 989 -494 288 -64 353 -97 525 -267 l118 -115 0 80 c-1 181 -44 380
-108 501 -37 70 -182 211 -267 261 -105 61 -179 82 -410 115 -345 49 -561 114
-826 250 -52 27 -98 49 -101 49 -3 0 -13 -9 -22 -19z"/>
<path d="M6722 6157 c-1 -193 -7 -374 -12 -402 -12 -58 -51 -127 -119 -208
-86 -102 -149 -262 -188 -472 -14 -74 -17 -162 -18 -505 l-1 -415 -41 -85
c-39 -79 -120 -205 -262 -410 -102 -145 -152 -264 -137 -323 3 -13 17 -36 31
-53 15 -16 65 -75 112 -132 153 -185 252 -241 436 -250 126 -5 220 7 367 50
665 195 1071 533 1306 1088 45 107 127 346 160 467 66 242 82 491 44 668 -77
362 -244 588 -610 830 -121 79 -371 210 -520 271 -63 25 -211 89 -328 140
-117 52 -214 94 -215 94 -1 0 -3 -159 -5 -353z"/>
<path d="M8120 6313 c-122 -3 -427 -23 -479 -30 -40 -5 -12 -15 320 -109 200
-57 402 -115 449 -129 156 -45 244 -64 440 -95 788 -123 1212 -295 1575 -640
500 -475 1855 -1467 2408 -1764 77 -41 188 -88 195 -82 7 7 -77 117 -137 179
-63 66 -246 232 -421 381 -406 348 -1073 941 -1312 1166 -723 682 -1292 998
-1968 1090 -266 36 -622 47 -1070 33z"/>

</g>
</svg>
