<?xml version="1.0" standalone="no"?>
<!DOCTYPE svg PUBLIC "-//W3C//DTD SVG 20010904//EN"
 "http://www.w3.org/TR/2001/REC-SVG-20010904/DTD/svg10.dtd">
<svg version="1.0" xmlns="http://www.w3.org/2000/svg"
 width="512.000000pt" height="512.000000pt" viewBox="0 0 512.000000 512.000000"
 preserveAspectRatio="xMidYMid meet">
<metadata>
Created by potrace 1.16, written by Peter Selinger 2001-2019
</metadata>
<g transform="translate(0.000000,512.000000) scale(0.100000,-0.100000)"
fill="#000000" stroke="none">
<path d="M1695 4120 c-215 -50 -378 -140 -528 -293 -210 -215 -319 -525 -288
-818 6 -57 14 -116 17 -130 5 -24 3 -26 -53 -38 -235 -52 -457 -218 -577 -434
-19 -34 -50 -105 -67 -157 -32 -92 -33 -100 -33 -265 -1 -194 8 -239 79 -390
114 -243 323 -411 601 -482 65 -17 174 -18 1669 -18 1508 0 1605 1 1685 18
382 82 680 390 750 777 14 79 14 246 0 335 -49 306 -268 587 -557 714 -121 53
-215 73 -366 80 l-138 6 -32 75 c-102 234 -316 408 -572 465 -90 20 -287 16
-372 -7 l-52 -15 -12 30 c-27 65 -116 186 -193 263 -153 152 -324 244 -538
288 -107 22 -318 20 -423 -4z m440 -181 c254 -66 452 -230 572 -472 26 -51 53
-97 62 -104 25 -19 68 -15 145 14 63 24 85 27 196 27 102 1 138 -3 195 -21
200 -64 358 -225 421 -430 13 -44 32 -87 41 -95 12 -10 61 -13 202 -13 181 -1
188 -1 272 -31 140 -50 214 -96 319 -203 80 -81 103 -111 143 -191 62 -125 87
-227 88 -356 0 -117 -18 -216 -59 -311 -93 -222 -276 -385 -517 -460 l-90 -28
-1560 -3 c-1076 -2 -1582 1 -1630 8 -161 25 -279 85 -401 205 -218 215 -274
528 -143 804 109 231 317 378 577 409 127 15 145 42 111 163 -29 106 -37 320
-15 417 38 170 108 301 220 419 143 151 312 241 511 273 87 13 248 4 340 -21z"/>
</g>
</svg>
