<?xml version="1.0" standalone="no"?>
<!DOCTYPE svg PUBLIC "-//W3C//DTD SVG 20010904//EN"
 "http://www.w3.org/TR/2001/REC-SVG-20010904/DTD/svg10.dtd">
<svg version="1.0" xmlns="http://www.w3.org/2000/svg"
 width="145.000000pt" height="106.000000pt" viewBox="0 0 145.000000 106.000000"
 preserveAspectRatio="xMidYMid meet">
<metadata>
Created by potrace 1.16, written by Peter Selinger 2001-2019
</metadata>
<g transform="translate(0.000000,106.000000) scale(0.100000,-0.100000)"
fill="#000000" stroke="none">
<path d="M657 925 c-54 -15 -69 -25 -48 -33 26 -9 77 -63 64 -69 -7 -2 -13
-13 -13 -23 0 -50 -11 -53 -51 -14 -23 22 -39 48 -39 61 0 13 -5 23 -10 23
-12 0 -16 -9 -24 -59 -6 -33 -6 -34 13 -17 11 10 22 13 25 8 3 -6 0 -12 -7
-15 -8 -3 -11 -19 -9 -46 4 -40 22 -49 22 -10 0 20 1 20 29 -3 25 -19 61 -73
61 -91 0 -7 -22 -3 -38 7 -10 6 -9 0 2 -22 19 -37 21 -51 4 -34 -7 7 -21 12
-32 12 -10 0 -16 -3 -12 -7 3 -4 -6 -12 -21 -19 -26 -12 -25 -12 29 -13 31 -1
60 -5 63 -11 3 -5 -1 -10 -10 -10 -8 0 -40 -20 -71 -45 -66 -54 -106 -59 -153
-19 -28 23 -31 24 -31 7 0 -28 46 -116 75 -143 l25 -23 0 22 c0 30 36 98 59
110 10 6 37 26 60 46 49 40 70 46 47 13 -18 -25 -20 -38 -8 -38 5 0 15 11 22
25 25 46 40 31 40 -40 0 -85 -18 -127 -69 -160 -23 -14 -41 -32 -41 -39 0 -39
173 -49 264 -16 107 41 133 85 76 133 -41 35 -81 42 -120 22 -39 -20 -54 -15
-80 27 -42 69 -15 116 59 105 33 -6 34 -5 17 8 -11 8 -17 17 -14 21 9 9 131
-16 156 -33 35 -22 65 -97 59 -145 -5 -38 -5 -38 12 -16 25 33 61 122 61 151
0 39 -21 50 -69 36 -34 -10 -47 -9 -86 6 -25 9 -61 17 -80 17 -41 0 -37 14 8
27 32 9 32 9 5 10 -34 1 -36 14 -5 37 l22 16 -27 -6 c-14 -3 -34 -9 -45 -12
-12 -4 -10 2 10 20 15 14 23 26 16 26 -6 0 -27 -16 -45 -36 -31 -33 -34 -34
-34 -13 0 13 9 33 21 45 l21 22 -29 -1 c-32 -2 -43 -13 -43 -44 0 -13 -4 -23
-10 -23 -5 0 -10 9 -10 20 0 11 -9 43 -20 72 -22 58 -27 96 -9 66 16 -28 27
-21 39 21 12 47 43 87 73 97 21 7 21 7 2 15 -30 11 -94 9 -148 -6z m-34 -167
c57 -77 60 -91 10 -38 -29 29 -53 57 -53 62 0 18 20 6 43 -24z m73 -43 c22
-53 16 -64 -11 -20 -27 44 -30 55 -14 55 5 0 17 -16 25 -35z"/>
<path d="M943 833 c-7 -2 -15 -21 -19 -41 -8 -42 -22 -74 -38 -84 -6 -4 15 -4
46 -1 70 7 98 0 139 -34 l32 -27 -8 25 c-37 122 -96 185 -152 162z"/>
<path d="M441 767 c-20 -33 -51 -110 -51 -129 0 -5 9 -4 19 2 28 15 122 12
154 -4 37 -20 34 -3 -5 28 -20 15 -41 46 -53 77 -11 29 -25 54 -32 56 -6 2
-20 -11 -32 -30z"/>
</g>
</svg>
